<?xml version="1.0" standalone="no"?>
<!DOCTYPE svg PUBLIC "-//W3C//DTD SVG 20010904//EN"
 "http://www.w3.org/TR/2001/REC-SVG-20010904/DTD/svg10.dtd">
<svg version="1.0" xmlns="http://www.w3.org/2000/svg"
 width="260.000000pt" height="260.000000pt" viewBox="0 0 260.000000 260.000000"
 preserveAspectRatio="xMidYMid meet">
<metadata>
Created by potrace 1.14, written by Peter Selinger 2001-2017
</metadata>
<g transform="translate(0.000000,260.000000) scale(0.100000,-0.100000)"
fill="#000000" stroke="none">
<path d="M149 2315 c-1 -5 -1 -12 -1 -15 0 -18 14 -200 17 -225 2 -16 6 -61
10 -100 5 -66 8 -93 20 -220 3 -27 7 -86 11 -130 3 -44 7 -90 9 -103 2 -13 7
-65 10 -117 4 -51 8 -101 10 -112 2 -10 4 -26 4 -35 1 -17 18 -25 141 -57 41
-11 124 -33 184 -50 60 -16 116 -28 125 -26 9 2 42 11 74 20 32 9 60 15 62 13
4 -4 10 -58 20 -178 4 -41 8 -91 10 -110 2 -19 7 -71 10 -115 4 -44 8 -98 11
-120 5 -55 15 -173 18 -213 1 -17 6 -36 12 -41 5 -4 79 -27 164 -51 85 -23
172 -48 193 -54 34 -11 54 -8 230 41 106 29 198 56 206 61 8 4 15 19 16 33 2
13 6 71 10 129 4 58 8 107 10 110 2 3 6 52 10 110 4 57 9 113 11 123 2 11 6
60 10 110 3 50 8 98 9 106 2 9 4 26 4 37 l1 21 64 -17 63 -18 104 30 c57 16
111 31 119 33 8 2 59 15 113 30 82 24 97 31 98 49 3 49 7 95 13 151 4 33 9 89
12 125 2 36 6 85 9 110 3 25 7 74 10 110 3 36 8 81 10 100 2 19 7 76 10 125 4
50 8 100 10 113 2 12 7 64 10 115 4 50 8 96 9 102 1 12 -1046 15 -1055 3 -3
-5 -2 -36 2 -71 4 -34 10 -96 13 -137 4 -41 8 -93 11 -115 2 -22 6 -74 10
-115 11 -129 23 -272 30 -350 3 -30 8 -74 11 -98 l5 -42 -168 2 -168 3 2 25
c3 64 15 193 18 208 1 9 6 58 10 107 3 50 8 106 10 125 2 19 7 71 10 115 3 44
8 91 10 105 2 14 7 66 10 117 3 50 7 100 9 110 4 18 -15 18 -525 18 -350 0
-529 -3 -530 -10z"/>
</g>
</svg>
